<svg width="174" height="175" viewBox="0 0 174 175" fill="none" xmlns="http://www.w3.org/2000/svg">
<path fill-rule="evenodd" clip-rule="evenodd" d="M5.8302 174.084H81.5317V0.0197616C80.5345 0.0190062 79.5036 0.0147738 78.4419 0.0104187C51.6595 -0.0994918 5.8302 -0.287566 5.8302 53.362V162.132L0.849784 172.73C0.558193 173.35 1.01053 174.064 1.69558 174.064H5.8302V174.084Z" fill="#FBF5ED"/>
<mask id="mask0_534_3455" style="mask-type:luminance" maskUnits="userSpaceOnUse" x="90" y="58" width="84" height="117">
<path d="M173.122 58.041H90.8789V174.084H173.122V58.041Z" fill="white"/>
</mask>
<g mask="url(#mask0_534_3455)">
<path d="M168.191 116.035C168.191 148.079 143.086 174.057 112.116 174.057C81.2748 195.581 56.041 148.079 56.041 116.035C56.041 83.9906 80.8075 43.5083 112.116 58.0135C143.086 58.0135 168.191 83.9906 168.191 116.035Z" fill="#FBF5ED"/>
</g>
</svg>
