<svg width="106" height="28" viewBox="0 0 106 28" fill="none" xmlns="http://www.w3.org/2000/svg">
<circle cx="14" cy="14" r="14" fill="#FF3B2D"/>
<path d="M12.965 19H10.014V9.666H12.965C15.942 9.666 17.658 11.564 17.658 14.294C17.658 16.985 15.877 19 12.965 19ZM11.444 10.901V17.765H12.9C15.045 17.765 16.202 16.439 16.202 14.294C16.202 12.188 15.058 10.901 12.9 10.901H11.444ZM25.7196 17.752V19H19.8046V9.666H25.6286V10.914H21.2346V13.566H25.2386V14.814H21.2346V17.752H25.7196ZM31.7514 19H30.3214V10.953H27.2794V9.666H34.7934V10.953H31.7514V19ZM42.2786 19L41.4336 16.686H37.4036L36.5456 19H35.1026L38.6776 9.666H40.2506L43.7996 19H42.2786ZM39.4316 11.226L37.8326 15.529H41.0046L39.4316 11.226ZM47.1661 19H45.7361V9.666H47.1661V19ZM55.4942 19H49.8392V9.666H51.2692V17.713H55.4942V19ZM63.8656 19H60.9146V9.666H63.8656C66.8426 9.666 68.5586 11.564 68.5586 14.294C68.5586 16.985 66.7776 19 63.8656 19ZM62.3446 10.901V17.765H63.8006C65.9456 17.765 67.1026 16.439 67.1026 14.294C67.1026 12.188 65.9586 10.901 63.8006 10.901H62.3446ZM72.1352 19H70.7052V9.666H72.1352V19ZM82.4263 9.666L78.9943 19H77.4213L73.9893 9.666H75.5233L78.2403 17.336L80.9963 9.666H82.4263ZM90.2093 17.752V19H84.2943V9.666H90.1183V10.914H85.7243V13.566H89.7283V14.814H85.7243V17.752H90.2093ZM97.4759 14.242H96.5789V10.485H95.1359V9.666H98.9189V10.485H97.4759V14.242ZM101.623 14.242L100.219 10.667V14.242H99.3739V9.666H100.7L102.039 13.15L103.378 9.666H104.639V14.242H103.794V10.706L102.416 14.242H101.623Z" fill="#E5E1E6"/>
</svg>
