<svg width="102" height="101" viewBox="0 0 102 101" fill="none" xmlns="http://www.w3.org/2000/svg">
<rect x="0.5" width="101" height="101" rx="5" fill="#030303"/>
<g clip-path="url(#clip0_268_5599)">
<rect x="-44" y="83.9668" width="7" height="318" transform="rotate(-45.2002 -44 83.9668)" fill="#3C83EC"/>
<rect x="-44" y="66.9668" width="7" height="318" transform="rotate(-45.2002 -44 66.9668)" fill="#3C83EC"/>
<rect x="-44" y="49.9668" width="7" height="318" transform="rotate(-45.2002 -44 49.9668)" fill="#3C83EC"/>
<rect x="-44" y="32.9668" width="7" height="318" transform="rotate(-45.2002 -44 32.9668)" fill="#3C83EC"/>
<rect x="-44" y="15.9668" width="7" height="318" transform="rotate(-45.2002 -44 15.9668)" fill="#3C83EC"/>
<rect x="-44" y="-1.0332" width="7" height="318" transform="rotate(-45.2002 -44 -1.0332)" fill="#3C83EC"/>
<rect x="-44" y="-18.0332" width="7" height="318" transform="rotate(-45.2002 -44 -18.0332)" fill="#3C83EC"/>
<rect x="-44" y="-35.0332" width="7" height="318" transform="rotate(-45.2002 -44 -35.0332)" fill="#3C83EC"/>
<rect x="-44" y="-52.0332" width="7" height="318" transform="rotate(-45.2002 -44 -52.0332)" fill="#3C83EC"/>
<rect x="-44" y="-69.0332" width="7" height="318" transform="rotate(-45.2002 -44 -69.0332)" fill="#3C83EC"/>
<rect x="-44" y="-86.0332" width="7" height="318" transform="rotate(-45.2002 -44 -86.0332)" fill="#3C83EC"/>
<rect x="-44" y="-103.033" width="7" height="318" transform="rotate(-45.2002 -44 -103.033)" fill="#3C83EC"/>
<rect x="-44" y="-120.033" width="7" height="318" transform="rotate(-45.2002 -44 -120.033)" fill="#3C83EC"/>
<rect x="-40" y="-132.033" width="7" height="318" transform="rotate(-45.2002 -40 -132.033)" fill="#3C83EC"/>
<rect x="-23" y="-132.033" width="7" height="318" transform="rotate(-45.2002 -23 -132.033)" fill="#3C83EC"/>
<rect x="-6" y="-132.033" width="7" height="318" transform="rotate(-45.2002 -6 -132.033)" fill="#3C83EC"/>
<rect x="11" y="-132.033" width="7" height="318" transform="rotate(-45.2002 11 -132.033)" fill="#3C83EC"/>
</g>
<defs>
<clipPath id="clip0_268_5599">
<rect width="102" height="101" rx="5" fill="white"/>
</clipPath>
</defs>
</svg>
