<svg width="95" height="93" viewBox="0 0 95 93" fill="none" xmlns="http://www.w3.org/2000/svg">
<g clip-path="url(#clip0_2579_3004)">
<mask id="mask0_2579_3004" style="mask-type:luminance" maskUnits="userSpaceOnUse" x="0" y="0" width="95" height="93">
<path d="M91.5621 0H3.63086C1.974 0 0.630859 1.34315 0.630859 3V90C0.630859 91.6569 1.974 93 3.63086 93H91.5621C93.2189 93 94.5621 91.6569 94.5621 90V3C94.5621 1.34315 93.2189 0 91.5621 0Z" fill="white"/>
</mask>
<g mask="url(#mask0_2579_3004)">
<path d="M94.5627 0H1.07422V93H94.5627V0Z" fill="#FBF5ED"/>
<path d="M0.630859 0.351074L23.8279 23.5133H0.630859V0.351074Z" fill="#030303"/>
<path d="M24.1797 0.350586L47.3767 23.5128H24.1797V0.350586Z" fill="#030303"/>
<path d="M47.7266 0.351074L70.9233 23.5133H47.7266V0.351074Z" fill="#030303"/>
<path d="M71.2773 0.350586L94.4745 23.5128H71.2773V0.350586Z" fill="#030303"/>
<path d="M0.630859 23.5132L23.8279 46.6755H0.630859V23.5132Z" fill="#030303"/>
<path d="M24.1797 23.5132L47.3767 46.6755H24.1797V23.5132Z" fill="#030303"/>
<path d="M47.7266 23.5132L70.9233 46.6755H47.7266V23.5132Z" fill="#030303"/>
<path d="M71.2773 23.5132L94.4745 46.6755H71.2773V23.5132Z" fill="#030303"/>
<path d="M0.630859 46.6753L23.8279 69.8374H0.630859V46.6753Z" fill="#030303"/>
<path d="M24.1797 46.6758L47.3767 69.8379H24.1797V46.6758Z" fill="#030303"/>
<path d="M47.7266 46.6753L70.9233 69.8374H47.7266V46.6753Z" fill="#030303"/>
<path d="M71.2773 46.6758L94.4745 69.8379H71.2773V46.6758Z" fill="#030303"/>
<path d="M0.630859 69.8374L23.8279 92.9998H0.630859V69.8374Z" fill="#030303"/>
<path d="M24.1797 69.8374L47.3767 92.9998H24.1797V69.8374Z" fill="#030303"/>
<path d="M47.7266 69.8374L70.9233 92.9998H47.7266V69.8374Z" fill="#030303"/>
<path d="M71.2773 69.8374L94.4745 92.9998H71.2773V69.8374Z" fill="#030303"/>
</g>
</g>
<defs>
<clipPath id="clip0_2579_3004">
<rect width="94.2" height="93" fill="white" transform="translate(0.496094)"/>
</clipPath>
</defs>
</svg>
