<svg width="94" height="93" viewBox="0 0 94 93" fill="none" xmlns="http://www.w3.org/2000/svg">
<g clip-path="url(#clip0_2579_3026)">
<mask id="mask0_2579_3026" style="mask-type:luminance" maskUnits="userSpaceOnUse" x="0" y="0" width="94" height="93">
<path d="M47.3098 0H46.9839C21.4475 0 0.746094 20.7013 0.746094 46.2377C0.746094 71.7741 21.4475 92.4754 46.9839 92.4754H47.3098C72.8462 92.4754 93.5476 71.7741 93.5476 46.2377C93.5476 20.7013 72.8462 0 47.3098 0Z" fill="white"/>
</mask>
<g mask="url(#mask0_2579_3026)">
<path d="M93.5473 0H0.746094V92.4754H93.5473V0Z" fill="#3C83EC"/>
<path d="M82.466 46.0645C82.466 65.5753 66.6519 81.3925 47.1461 81.3925C27.6405 81.3925 11.8262 65.5753 11.8262 46.0645C11.8262 26.5536 27.6405 10.7368 47.1461 10.7368C66.6519 10.7368 82.466 26.5536 82.466 46.0645ZM23.8142 46.0645C23.8142 58.954 34.2578 69.4032 47.1461 69.4032C60.0346 69.4032 70.478 58.954 70.478 46.0645C70.478 33.1751 60.0346 22.7262 47.1461 22.7262C34.2578 22.7262 23.8142 33.1751 23.8142 46.0645Z" fill="#FBF5ED"/>
<path d="M47.147 60.6115C55.1791 60.6115 61.6905 54.0988 61.6905 46.0648C61.6905 38.0309 55.1791 31.5181 47.147 31.5181C39.1148 31.5181 32.6035 38.0309 32.6035 46.0648C32.6035 54.0988 39.1148 60.6115 47.147 60.6115Z" fill="#FBF5ED"/>
</g>
</g>
<defs>
<clipPath id="clip0_2579_3026">
<rect width="93.5962" height="93" fill="white" transform="translate(0.285156)"/>
</clipPath>
</defs>
</svg>
