<svg width="95" height="93" viewBox="0 0 95 93" fill="none" xmlns="http://www.w3.org/2000/svg">
<mask id="mask0_2579_3047" style="mask-type:luminance" maskUnits="userSpaceOnUse" x="1" y="0" width="93" height="93">
<path d="M90.9652 0H4.1253C2.47907 0 1.14453 1.33454 1.14453 2.98077V89.4946C1.14453 91.1408 2.47907 92.4754 4.1253 92.4754H90.9652C92.6115 92.4754 93.946 91.1408 93.946 89.4946V2.98077C93.946 1.33454 92.6115 0 90.9652 0Z" fill="white"/>
</mask>
<g mask="url(#mask0_2579_3047)">
<path d="M93.9458 0H1.14453V92.4754H93.9458V0Z" fill="#51BA81"/>
<path d="M23.8805 28.8571C28.0224 28.8571 31.3801 25.4986 31.3801 21.3558C31.3801 17.2129 28.0224 13.8545 23.8805 13.8545C19.7386 13.8545 16.3809 17.2129 16.3809 21.3558C16.3809 25.4986 19.7386 28.8571 23.8805 28.8571Z" fill="#FBF5ED"/>
<path d="M71.5563 78.6869C75.6977 78.6869 79.0559 75.3282 79.0559 71.1855C79.0559 67.0428 75.6977 63.6841 71.5563 63.6841C67.4142 63.6841 64.0566 67.0428 64.0566 71.1855C64.0566 75.3282 67.4142 78.6869 71.5563 78.6869Z" fill="#FBF5ED"/>
</g>
</svg>
