<svg width="188" height="93" viewBox="0 0 188 93" fill="none" xmlns="http://www.w3.org/2000/svg">
<rect x="0.0742188" width="187" height="93" rx="5" fill="#EC3C3C"/>
<mask id="mask0_2625_3087" style="mask-type:luminance" maskUnits="userSpaceOnUse" x="13" y="0" width="161" height="93">
<path d="M169.713 0H17.9129C15.5933 0 13.7129 1.8804 13.7129 4.2V88.8C13.7129 91.1196 15.5933 93 17.9129 93H169.713C172.032 93 173.913 91.1196 173.913 88.8V4.2C173.913 1.8804 172.032 0 169.713 0Z" fill="white"/>
</mask>
<g mask="url(#mask0_2625_3087)">
<path d="M187.312 0H0.511719V93.072H187.312V0Z" fill="#EC3C3C"/>
<path d="M76.3127 33.1152H49.4775C42.6446 33.1152 37.1055 38.6556 37.1055 45.49C37.1055 52.3244 42.6446 57.8647 49.4775 57.8647H76.3127C83.1455 57.8647 88.6847 52.3244 88.6847 45.49C88.6847 38.6556 83.1455 33.1152 76.3127 33.1152Z" fill="#FBF5ED"/>
<path d="M76.3133 57.8647C83.1461 57.8647 88.6853 52.3244 88.6853 45.49C88.6853 38.6556 83.1461 33.1152 76.3133 33.1152C69.4805 33.1152 63.9414 38.6556 63.9414 45.49C63.9414 52.3244 69.4805 57.8647 76.3133 57.8647Z" fill="#030303"/>
<path d="M138.346 33.1152H111.511C104.678 33.1152 99.1387 38.6556 99.1387 45.49C99.1387 52.3244 104.678 57.8647 111.511 57.8647H138.346C145.179 57.8647 150.718 52.3244 150.718 45.49C150.718 38.6556 145.179 33.1152 138.346 33.1152Z" fill="#FBF5ED"/>
<path d="M138.347 57.8647C145.179 57.8647 150.719 52.3244 150.719 45.49C150.719 38.6556 145.179 33.1152 138.347 33.1152C131.514 33.1152 125.975 38.6556 125.975 45.49C125.975 52.3244 131.514 57.8647 138.347 57.8647Z" fill="#030303"/>
</g>
</svg>
