<svg width="101" height="101" viewBox="0 0 101 101" fill="none" xmlns="http://www.w3.org/2000/svg">
<g clip-path="url(#clip0_268_4299)">
<circle cx="2.5" cy="2.5" r="2.5" fill="#51BA81"/>
<circle cx="10.5" cy="2.5" r="2.5" fill="#51BA81"/>
<circle cx="18.5" cy="2.5" r="2.5" fill="#51BA81"/>
<circle cx="26.5" cy="2.5" r="2.5" fill="#51BA81"/>
<circle cx="34.5" cy="2.5" r="2.5" fill="#51BA81"/>
<circle cx="42.5" cy="2.5" r="2.5" fill="#51BA81"/>
<circle cx="50.5" cy="2.5" r="2.5" fill="#51BA81"/>
<circle cx="58.5" cy="2.5" r="2.5" fill="#51BA81"/>
<circle cx="66.5" cy="2.5" r="2.5" fill="#51BA81"/>
<circle cx="74.5" cy="2.5" r="2.5" fill="#51BA81"/>
<circle cx="82.5" cy="2.5" r="2.5" fill="#51BA81"/>
<circle cx="90.5" cy="2.5" r="2.5" fill="#51BA81"/>
<circle cx="98.5" cy="2.5" r="2.5" fill="#51BA81"/>
<circle cx="2.5" cy="10.5" r="2.5" fill="#51BA81"/>
<circle cx="10.5" cy="10.5" r="2.5" fill="#51BA81"/>
<circle cx="18.5" cy="10.5" r="2.5" fill="#51BA81"/>
<circle cx="26.5" cy="10.5" r="2.5" fill="#51BA81"/>
<circle cx="34.5" cy="10.5" r="2.5" fill="#51BA81"/>
<circle cx="42.5" cy="10.5" r="2.5" fill="#51BA81"/>
<circle cx="50.5" cy="10.5" r="2.5" fill="#51BA81"/>
<circle cx="58.5" cy="10.5" r="2.5" fill="#51BA81"/>
<circle cx="66.5" cy="10.5" r="2.5" fill="#51BA81"/>
<circle cx="74.5" cy="10.5" r="2.5" fill="#51BA81"/>
<circle cx="82.5" cy="10.5" r="2.5" fill="#51BA81"/>
<circle cx="90.5" cy="10.5" r="2.5" fill="#51BA81"/>
<circle cx="98.5" cy="10.5" r="2.5" fill="#51BA81"/>
<circle cx="2.5" cy="18.5" r="2.5" fill="#51BA81"/>
<circle cx="10.5" cy="18.5" r="2.5" fill="#51BA81"/>
<circle cx="18.5" cy="18.5" r="2.5" fill="#51BA81"/>
<circle cx="26.5" cy="18.5" r="2.5" fill="#51BA81"/>
<circle cx="34.5" cy="18.5" r="2.5" fill="#51BA81"/>
<circle cx="42.5" cy="18.5" r="2.5" fill="#51BA81"/>
<circle cx="50.5" cy="18.5" r="2.5" fill="#51BA81"/>
<circle cx="58.5" cy="18.5" r="2.5" fill="#51BA81"/>
<circle cx="66.5" cy="18.5" r="2.5" fill="#51BA81"/>
<circle cx="74.5" cy="18.5" r="2.5" fill="#51BA81"/>
<circle cx="82.5" cy="18.5" r="2.5" fill="#51BA81"/>
<circle cx="90.5" cy="18.5" r="2.5" fill="#51BA81"/>
<circle cx="98.5" cy="18.5" r="2.5" fill="#51BA81"/>
<circle cx="2.5" cy="26.5" r="2.5" fill="#51BA81"/>
<circle cx="10.5" cy="26.5" r="2.5" fill="#51BA81"/>
<circle cx="18.5" cy="26.5" r="2.5" fill="#51BA81"/>
<circle cx="26.5" cy="26.5" r="2.5" fill="#51BA81"/>
<circle cx="34.5" cy="26.5" r="2.5" fill="#51BA81"/>
<circle cx="42.5" cy="26.5" r="2.5" fill="#51BA81"/>
<circle cx="50.5" cy="26.5" r="2.5" fill="#51BA81"/>
<circle cx="58.5" cy="26.5" r="2.5" fill="#51BA81"/>
<circle cx="66.5" cy="26.5" r="2.5" fill="#51BA81"/>
<circle cx="74.5" cy="26.5" r="2.5" fill="#51BA81"/>
<circle cx="82.5" cy="26.5" r="2.5" fill="#51BA81"/>
<circle cx="90.5" cy="26.5" r="2.5" fill="#51BA81"/>
<circle cx="98.5" cy="26.5" r="2.5" fill="#51BA81"/>
<circle cx="2.5" cy="34.5" r="2.5" fill="#51BA81"/>
<circle cx="10.5" cy="34.5" r="2.5" fill="#51BA81"/>
<circle cx="18.5" cy="34.5" r="2.5" fill="#51BA81"/>
<circle cx="26.5" cy="34.5" r="2.5" fill="#51BA81"/>
<circle cx="34.5" cy="34.5" r="2.5" fill="#51BA81"/>
<circle cx="42.5" cy="34.5" r="2.5" fill="#51BA81"/>
<circle cx="50.5" cy="34.5" r="2.5" fill="#51BA81"/>
<circle cx="58.5" cy="34.5" r="2.5" fill="#51BA81"/>
<circle cx="66.5" cy="34.5" r="2.5" fill="#51BA81"/>
<circle cx="74.5" cy="34.5" r="2.5" fill="#51BA81"/>
<circle cx="82.5" cy="34.5" r="2.5" fill="#51BA81"/>
<circle cx="90.5" cy="34.5" r="2.5" fill="#51BA81"/>
<circle cx="98.5" cy="34.5" r="2.5" fill="#51BA81"/>
<circle cx="2.5" cy="42.5" r="2.5" fill="#51BA81"/>
<circle cx="10.5" cy="42.5" r="2.5" fill="#51BA81"/>
<circle cx="18.5" cy="42.5" r="2.5" fill="#51BA81"/>
<circle cx="26.5" cy="42.5" r="2.5" fill="#51BA81"/>
<circle cx="34.5" cy="42.5" r="2.5" fill="#51BA81"/>
<circle cx="42.5" cy="42.5" r="2.5" fill="#51BA81"/>
<circle cx="50.5" cy="42.5" r="2.5" fill="#51BA81"/>
<circle cx="58.5" cy="42.5" r="2.5" fill="#51BA81"/>
<circle cx="66.5" cy="42.5" r="2.5" fill="#51BA81"/>
<circle cx="74.5" cy="42.5" r="2.5" fill="#51BA81"/>
<circle cx="82.5" cy="42.5" r="2.5" fill="#51BA81"/>
<circle cx="90.5" cy="42.5" r="2.5" fill="#51BA81"/>
<circle cx="98.5" cy="42.5" r="2.5" fill="#51BA81"/>
<circle cx="2.5" cy="50.5" r="2.5" fill="#51BA81"/>
<circle cx="10.5" cy="50.5" r="2.5" fill="#51BA81"/>
<circle cx="18.5" cy="50.5" r="2.5" fill="#51BA81"/>
<circle cx="26.5" cy="50.5" r="2.5" fill="#51BA81"/>
<circle cx="34.5" cy="50.5" r="2.5" fill="#51BA81"/>
<circle cx="42.5" cy="50.5" r="2.5" fill="#51BA81"/>
<circle cx="50.5" cy="50.5" r="2.5" fill="#51BA81"/>
<circle cx="58.5" cy="50.5" r="2.5" fill="#51BA81"/>
<circle cx="66.5" cy="50.5" r="2.5" fill="#51BA81"/>
<circle cx="74.5" cy="50.5" r="2.5" fill="#51BA81"/>
<circle cx="82.5" cy="50.5" r="2.5" fill="#51BA81"/>
<circle cx="90.5" cy="50.5" r="2.5" fill="#51BA81"/>
<circle cx="98.5" cy="50.5" r="2.5" fill="#51BA81"/>
<circle cx="2.5" cy="58.5" r="2.5" fill="#51BA81"/>
<circle cx="10.5" cy="58.5" r="2.5" fill="#51BA81"/>
<circle cx="18.5" cy="58.5" r="2.5" fill="#51BA81"/>
<circle cx="26.5" cy="58.5" r="2.5" fill="#51BA81"/>
<circle cx="34.5" cy="58.5" r="2.5" fill="#51BA81"/>
<circle cx="42.5" cy="58.5" r="2.5" fill="#51BA81"/>
<circle cx="50.5" cy="58.5" r="2.5" fill="#51BA81"/>
<circle cx="58.5" cy="58.5" r="2.5" fill="#51BA81"/>
<circle cx="66.5" cy="58.5" r="2.5" fill="#51BA81"/>
<circle cx="74.5" cy="58.5" r="2.5" fill="#51BA81"/>
<circle cx="82.5" cy="58.5" r="2.5" fill="#51BA81"/>
<circle cx="90.5" cy="58.5" r="2.5" fill="#51BA81"/>
<circle cx="98.5" cy="58.5" r="2.5" fill="#51BA81"/>
<circle cx="2.5" cy="66.5" r="2.5" fill="#51BA81"/>
<circle cx="10.5" cy="66.5" r="2.5" fill="#51BA81"/>
<circle cx="18.5" cy="66.5" r="2.5" fill="#51BA81"/>
<circle cx="26.5" cy="66.5" r="2.5" fill="#51BA81"/>
<circle cx="34.5" cy="66.5" r="2.5" fill="#51BA81"/>
<circle cx="42.5" cy="66.5" r="2.5" fill="#51BA81"/>
<circle cx="50.5" cy="66.5" r="2.5" fill="#51BA81"/>
<circle cx="58.5" cy="66.5" r="2.5" fill="#51BA81"/>
<circle cx="66.5" cy="66.5" r="2.5" fill="#51BA81"/>
<circle cx="74.5" cy="66.5" r="2.5" fill="#51BA81"/>
<circle cx="82.5" cy="66.5" r="2.5" fill="#51BA81"/>
<circle cx="90.5" cy="66.5" r="2.5" fill="#51BA81"/>
<circle cx="98.5" cy="66.5" r="2.5" fill="#51BA81"/>
<circle cx="2.5" cy="74.5" r="2.5" fill="#51BA81"/>
<circle cx="10.5" cy="74.5" r="2.5" fill="#51BA81"/>
<circle cx="18.5" cy="74.5" r="2.5" fill="#51BA81"/>
<circle cx="26.5" cy="74.5" r="2.5" fill="#51BA81"/>
<circle cx="34.5" cy="74.5" r="2.5" fill="#51BA81"/>
<circle cx="42.5" cy="74.5" r="2.5" fill="#51BA81"/>
<circle cx="50.5" cy="74.5" r="2.5" fill="#51BA81"/>
<circle cx="58.5" cy="74.5" r="2.5" fill="#51BA81"/>
<circle cx="66.5" cy="74.5" r="2.5" fill="#51BA81"/>
<circle cx="74.5" cy="74.5" r="2.5" fill="#51BA81"/>
<circle cx="82.5" cy="74.5" r="2.5" fill="#51BA81"/>
<circle cx="90.5" cy="74.5" r="2.5" fill="#51BA81"/>
<circle cx="98.5" cy="74.5" r="2.5" fill="#51BA81"/>
<circle cx="2.5" cy="82.5" r="2.5" fill="#51BA81"/>
<circle cx="10.5" cy="82.5" r="2.5" fill="#51BA81"/>
<circle cx="18.5" cy="82.5" r="2.5" fill="#51BA81"/>
<circle cx="26.5" cy="82.5" r="2.5" fill="#51BA81"/>
<circle cx="34.5" cy="82.5" r="2.5" fill="#51BA81"/>
<circle cx="42.5" cy="82.5" r="2.5" fill="#51BA81"/>
<circle cx="50.5" cy="82.5" r="2.5" fill="#51BA81"/>
<circle cx="58.5" cy="82.5" r="2.5" fill="#51BA81"/>
<circle cx="66.5" cy="82.5" r="2.5" fill="#51BA81"/>
<circle cx="74.5" cy="82.5" r="2.5" fill="#51BA81"/>
<circle cx="82.5" cy="82.5" r="2.5" fill="#51BA81"/>
<circle cx="90.5" cy="82.5" r="2.5" fill="#51BA81"/>
<circle cx="98.5" cy="82.5" r="2.5" fill="#51BA81"/>
<circle cx="2.5" cy="90.5" r="2.5" fill="#51BA81"/>
<circle cx="10.5" cy="90.5" r="2.5" fill="#51BA81"/>
<circle cx="18.5" cy="90.5" r="2.5" fill="#51BA81"/>
<circle cx="26.5" cy="90.5" r="2.5" fill="#51BA81"/>
<circle cx="34.5" cy="90.5" r="2.5" fill="#51BA81"/>
<circle cx="42.5" cy="90.5" r="2.5" fill="#51BA81"/>
<circle cx="50.5" cy="90.5" r="2.5" fill="#51BA81"/>
<circle cx="58.5" cy="90.5" r="2.5" fill="#51BA81"/>
<circle cx="66.5" cy="90.5" r="2.5" fill="#51BA81"/>
<circle cx="74.5" cy="90.5" r="2.5" fill="#51BA81"/>
<circle cx="82.5" cy="90.5" r="2.5" fill="#51BA81"/>
<circle cx="90.5" cy="90.5" r="2.5" fill="#51BA81"/>
<circle cx="98.5" cy="90.5" r="2.5" fill="#51BA81"/>
<circle cx="2.5" cy="98.5" r="2.5" fill="#51BA81"/>
<circle cx="10.5" cy="98.5" r="2.5" fill="#51BA81"/>
<circle cx="18.5" cy="98.5" r="2.5" fill="#51BA81"/>
<circle cx="26.5" cy="98.5" r="2.5" fill="#51BA81"/>
<circle cx="34.5" cy="98.5" r="2.5" fill="#51BA81"/>
<circle cx="42.5" cy="98.5" r="2.5" fill="#51BA81"/>
<circle cx="50.5" cy="98.5" r="2.5" fill="#51BA81"/>
<circle cx="58.5" cy="98.5" r="2.5" fill="#51BA81"/>
<circle cx="66.5" cy="98.5" r="2.5" fill="#51BA81"/>
<circle cx="74.5" cy="98.5" r="2.5" fill="#51BA81"/>
<circle cx="82.5" cy="98.5" r="2.5" fill="#51BA81"/>
<circle cx="90.5" cy="98.5" r="2.5" fill="#51BA81"/>
<circle cx="98.5" cy="98.5" r="2.5" fill="#51BA81"/>
</g>
<defs>
<clipPath id="clip0_268_4299">
<rect width="101" height="101" fill="white"/>
</clipPath>
</defs>
</svg>
