<svg width="104" height="104" viewBox="0 0 104 104" fill="none" xmlns="http://www.w3.org/2000/svg">
<path d="M52.4159 90.4708H54.6602V97.7435H52.3165C51.611 97.7435 51.0073 97.5979 50.5054 97.3067C50.0035 97.0179 49.6188 96.6024 49.3513 96.0603C49.0838 95.5205 48.95 94.8742 48.95 94.1213C48.95 93.3638 49.085 92.7115 49.3548 92.1647C49.6247 91.6201 50.0177 91.2011 50.5338 90.9076C51.0499 90.6164 51.6773 90.4708 52.4159 90.4708ZM53.7796 91.252H52.4727C51.8714 91.252 51.3731 91.368 50.9777 91.6C50.5824 91.832 50.2876 92.1623 50.0935 92.5908C49.8994 93.0193 49.8023 93.5295 49.8023 94.1213C49.8023 94.7085 49.8982 95.2139 50.0899 95.6377C50.2817 96.0638 50.5681 96.3905 50.9493 96.6178C51.3305 96.8474 51.8051 96.9622 52.3733 96.9622H53.7796V91.252Z" fill="currentColor"/>
<path d="M43.9427 97.0439L45.1398 89.8704L46.0085 90.0153L44.8114 97.1889L43.9427 97.0439Z" fill="currentColor"/>
<path d="M38.8875 95.8956L38.8333 89.4041L38.7527 89.3764L34.7227 94.4658L33.8495 94.166L38.7367 88.1544L39.5965 88.4496L39.7608 96.1953L38.8875 95.8956Z" fill="currentColor"/>
<path d="M35.3646 86.8052L31.9032 93.2014L28.043 91.1124L28.4148 90.4253L31.5005 92.0952L32.6701 89.934L29.7843 88.3723L30.1561 87.6852L33.0419 89.2469L34.2182 87.0732L31.0826 85.3762L31.4545 84.6892L35.3646 86.8052Z" fill="currentColor"/>
<path d="M25.0272 79.6848L21.0234 86.0736L20.4173 85.4152L23.7458 80.2852L23.6977 80.233L18.2911 83.1056L17.6177 82.3741L20.927 77.2232L20.8789 77.171L15.4916 80.0645L14.8855 79.4061L21.5831 75.9435L22.1988 76.6123L19.0221 81.7184L19.0605 81.7602L24.4115 79.016L25.0272 79.6848Z" fill="currentColor"/>
<path d="M13.1909 76.5327L19.2794 72.5549L19.7611 73.2921L13.6726 77.2699L13.1909 76.5327Z" fill="currentColor"/>
<path d="M11.6236 72.3984L10.9081 72.7122L8.71708 67.7171L9.43253 67.4032L10.3512 69.4975L16.2959 66.8899L16.6497 67.6965L10.7049 70.304L11.6236 72.3984Z" fill="currentColor"/>
<path d="M15.0368 63.7713L7.98658 65.5567L7.77038 64.7029L10.9099 63.9079L9.95796 60.1487L6.81843 60.9438L6.60223 60.09L13.6524 58.3047L13.8686 59.1584L10.7153 59.9569L11.6673 63.7161L14.8206 62.9176L15.0368 63.7713Z" fill="currentColor"/>
<path d="M6.27456 45.7823L6.34729 44.9046L11.1462 45.3023C11.6416 45.3433 12.0743 45.4968 12.4443 45.7626C12.8121 46.0259 13.0905 46.378 13.2797 46.8189C13.4664 47.2596 13.5363 47.7642 13.4892 48.3328C13.442 48.9014 13.2901 49.3877 13.0333 49.7916C12.7742 50.1954 12.4415 50.498 12.0352 50.6995C11.6267 50.8985 11.1748 50.9774 10.6793 50.9364L5.88044 50.5387L5.95316 49.6611L10.6813 50.0528C11.0352 50.0822 11.3566 50.0304 11.6455 49.8976C11.9321 49.7645 12.1664 49.5606 12.3483 49.2859C12.5281 49.0086 12.6347 48.6682 12.6681 48.2648C12.7015 47.8613 12.6524 47.5081 12.5207 47.205C12.3867 46.9017 12.1892 46.662 11.9282 46.486C11.6651 46.3074 11.3566 46.2034 11.0027 46.1741L6.27456 45.7823Z" fill="currentColor"/>
<path d="M9.51913 39.269C9.15983 39.222 8.84659 39.3209 8.57943 39.5659C8.31226 39.8108 8.12463 40.1467 8.01653 40.5736C7.93749 40.8857 7.91882 41.1716 7.96052 41.4313C8.0028 41.6886 8.09574 41.9051 8.23932 42.0807C8.38349 42.2539 8.56803 42.369 8.79294 42.426C8.98113 42.4736 9.15425 42.4699 9.31232 42.4147C9.46868 42.3566 9.60963 42.2677 9.73516 42.1481C9.8584 42.0279 9.96847 41.897 10.0654 41.7555C10.16 41.6134 10.241 41.4813 10.3086 41.3592L10.6827 40.692C10.7774 40.5206 10.8957 40.3332 11.0375 40.1298C11.18 39.9241 11.3508 39.7365 11.55 39.5672C11.7475 39.3949 11.9769 39.2699 12.2384 39.192C12.4999 39.1142 12.7959 39.1171 13.1264 39.2008C13.5073 39.2972 13.8263 39.4842 14.0833 39.7618C14.3408 40.037 14.512 40.3881 14.5968 40.815C14.6823 41.2395 14.6564 41.7226 14.5192 42.2643C14.3914 42.7692 14.1992 43.1857 13.9427 43.514C13.6867 43.8399 13.3863 44.0715 13.0414 44.2088C12.697 44.3439 12.3286 44.3764 11.9361 44.3063L12.1592 43.425C12.4313 43.4694 12.6742 43.4357 12.8882 43.3238C13.1004 43.2091 13.2795 43.042 13.4254 42.8225C13.5696 42.6001 13.6772 42.349 13.7481 42.069C13.8306 41.7431 13.852 41.4371 13.8121 41.1511C13.7699 40.8644 13.6727 40.6212 13.5206 40.4215C13.3662 40.2212 13.1604 40.0886 12.9034 40.0235C12.6693 39.9642 12.4623 39.9814 12.2822 40.075C12.1022 40.1686 11.9393 40.3105 11.7935 40.5007C11.6476 40.6909 11.5089 40.9012 11.3773 41.1316L10.9097 41.9363C10.6119 42.447 10.2754 42.8258 9.9003 43.0727C9.52518 43.3196 9.10009 43.3829 8.62503 43.2626C8.23029 43.1627 7.91307 42.9688 7.67336 42.681C7.43193 42.3903 7.27566 42.043 7.20454 41.6391C7.13171 41.2324 7.15225 40.8041 7.26616 40.3543C7.38123 39.8999 7.56499 39.5166 7.81743 39.2044C8.06758 38.8917 8.3588 38.6675 8.69109 38.5318C9.02397 38.3939 9.36972 38.3642 9.72835 38.4428L9.51913 39.269Z" fill="currentColor"/>
<path d="M18.5178 29.6399C18.3611 29.8797 18.1596 30.0605 17.9131 30.1823C17.6647 30.3028 17.4026 30.3578 17.1267 30.3472C16.8521 30.3346 16.5949 30.25 16.3551 30.0933C16.1133 29.9354 15.9325 29.7338 15.8127 29.4887C15.6922 29.2403 15.6382 28.9788 15.6508 28.7042C15.6613 28.4283 15.745 28.1705 15.9016 27.9307C16.0596 27.6889 16.2621 27.5087 16.5093 27.3902C16.7557 27.2684 17.0162 27.2138 17.2908 27.2263C17.5647 27.2356 17.8225 27.3192 18.0643 27.4772C18.3041 27.6339 18.4843 27.8364 18.6048 28.0848C18.7266 28.3312 18.7822 28.5924 18.7716 28.8683C18.7604 29.1409 18.6758 29.3981 18.5178 29.6399Z" fill="currentColor"/>
<path d="M26.493 22.4623L22.026 16.7231L25.4897 14.0271L25.9696 14.6437L23.2009 16.7986L24.7102 18.7379L27.2996 16.7225L27.7794 17.339L25.1901 19.3544L26.7081 21.3048L29.5217 19.1149L30.0016 19.7315L26.493 22.4623Z" fill="currentColor"/>
<path d="M28.3029 12.2177L33.1156 16.5744L33.1906 16.5338L32.1756 10.122L32.9876 9.68252L34.1005 17.3497L33.3009 17.7824L27.4909 12.6572L28.3029 12.2177Z" fill="currentColor"/>
<path d="M37.3761 15.7831L35.0146 8.90443L39.166 7.47926L39.4197 8.21818L36.1012 9.35739L36.8992 11.6816L40.0026 10.6162L40.2563 11.3551L37.1528 12.4206L37.9554 14.7582L41.3275 13.6006L41.5812 14.3395L37.3761 15.7831Z" fill="currentColor"/>
<path d="M43.286 13.9098L42.0889 6.73623L44.5128 6.33176C45.0732 6.23824 45.5492 6.25722 45.9408 6.38869C46.3319 6.51783 46.6416 6.73377 46.8697 7.03653C47.0979 7.33928 47.2472 7.70199 47.3177 8.12465C47.3883 8.54731 47.3644 8.93651 47.2461 9.29227C47.1279 9.64802 46.9057 9.94911 46.5796 10.1955C46.2531 10.4396 45.812 10.6081 45.2562 10.7008L43.2947 11.0281L43.1638 10.2435L45.0973 9.92087C45.4803 9.85696 45.7791 9.74948 45.994 9.59843C46.2111 9.44699 46.3551 9.25975 46.4259 9.03672C46.4986 8.81097 46.511 8.55449 46.4631 8.26726C46.4151 7.98004 46.3195 7.73798 46.1763 7.54107C46.033 7.34416 45.8337 7.20701 45.5784 7.12961C45.3227 7.04987 45.001 7.04235 44.6133 7.10703L43.0862 7.36187L44.1546 13.7648L43.286 13.9098ZM46.1248 10.1238L48.4279 13.0517L47.4191 13.2201L45.1441 10.2875L46.1248 10.1238Z" fill="currentColor"/>
<path d="M48.877 5.72727L49.8856 5.72727L51.9026 9.12216H51.9878L54.0049 5.72727H55.0134L52.3856 10.0028V13H51.5049V10.0028L48.877 5.72727Z" fill="currentColor"/>
<path d="M64.0818 14.9466L61.9591 14.2178L64.3205 7.33915L66.5373 8.10017C67.2046 8.32924 67.7283 8.66297 68.1084 9.10135C68.4893 9.53749 68.7183 10.0554 68.7953 10.655C68.873 11.2524 68.7897 11.9071 68.5452 12.6192C68.2993 13.3357 67.9599 13.9088 67.527 14.3384C67.095 14.7657 66.5872 15.0345 66.0037 15.1445C65.4211 15.2524 64.7804 15.1864 64.0818 14.9466ZM63.0457 13.7649L64.2817 14.1892C64.8505 14.3844 65.3595 14.4365 65.8087 14.3455C66.258 14.2544 66.644 14.0377 66.9668 13.6955C67.2895 13.3532 67.547 12.9022 67.7392 12.3424C67.9298 11.7871 68.0032 11.2779 67.9594 10.8149C67.9164 10.3495 67.7516 9.94753 67.4649 9.60881C67.1789 9.26785 66.7673 9.00513 66.2299 8.82064L64.8998 8.36403L63.0457 13.7649Z" fill="currentColor"/>
<path d="M68.5299 16.6655L71.9914 10.2694L75.8515 12.3584L75.4797 13.0455L72.3941 11.3756L71.2245 13.5368L74.1102 15.0985L73.7384 15.7856L70.8526 14.2239L69.6763 16.3976L72.8119 18.0945L72.4401 18.7816L68.5299 16.6655Z" fill="currentColor"/>
<path d="M77.5756 14.3713L78.0555 13.7547L82.3599 17.105L81.88 17.7215L80.0753 16.3168L76.0882 21.4395L75.3932 20.8986L79.3803 15.7759L77.5756 14.3713Z" fill="currentColor"/>
<path d="M79.1005 24.0393L78.4752 23.36L85.6345 20.3991L86.2502 21.0679L82.7082 27.9583L82.0828 27.279L85.1151 21.5337L85.0766 21.4919L79.1005 24.0393ZM81.4215 22.3661L83.9421 25.1041L83.3673 25.6332L80.8467 22.8952L81.4215 22.3661Z" fill="currentColor"/>
<path d="M90.7026 26.9382L84.6142 30.916L84.1325 30.1787L90.221 26.2009L90.7026 26.9382Z" fill="currentColor"/>
<path d="M86.729 34.6022L93.3892 31.6808L93.743 32.4873L87.7982 35.0949L89.1562 38.1909L88.4408 38.5047L86.729 34.6022Z" fill="currentColor"/>
<path d="M97.5212 44.5938L97.608 45.6413L91.7958 48.603L91.8028 48.6879L98.0233 50.6525L98.1101 51.7001L90.8622 52.3007L90.7941 51.4796L96.3008 51.0233L96.295 50.9525L90.6006 49.1439L90.5349 48.3511L95.8539 45.6299L95.8481 45.5591L90.3414 46.0154L90.2733 45.1943L97.5212 44.5938Z" fill="currentColor"/>
<path d="M90.7137 52.9547L90.79 52.0346L97.8173 55.2965L97.7423 56.2025L90.2739 58.2632L90.3501 57.3431L96.6308 55.6828L96.6355 55.6262L90.7137 52.9547ZM93.5168 53.5291L93.2095 57.238L92.4309 57.1734L92.7382 53.4646L93.5168 53.5291Z" fill="currentColor"/>
<path d="M96.4594 60.1962L97.2167 60.388L95.8777 65.6757L95.1204 65.4839L95.6818 63.2669L89.389 61.6734L89.6052 60.8196L95.898 62.4132L96.4594 60.1962Z" fill="currentColor"/>
<path d="M94.4598 67.4073L95.1752 67.7211L92.9842 72.7163L92.2687 72.4024L93.1874 70.3081L87.2426 67.7005L87.5964 66.894L93.5411 69.5016L94.4598 67.4073Z" fill="currentColor"/>
<path d="M85.5282 71.1572L91.6166 75.135L89.216 78.8095L88.5619 78.3822L90.4809 75.445L88.4237 74.101L86.629 76.8479L85.975 76.4206L87.7696 73.6736L85.7005 72.3218L83.7505 75.3066L83.0964 74.8793L85.5282 71.1572Z" fill="currentColor"/>
<path d="M82.0157 76.2651L87.3664 81.1908L85.702 82.9987C85.3172 83.4168 84.9299 83.6942 84.5402 83.8309C84.1522 83.9693 83.7752 83.9891 83.4092 83.8903C83.0432 83.7915 82.7026 83.597 82.3873 83.3067C82.0721 83.0165 81.8518 82.6947 81.7266 82.3414C81.6014 81.988 81.5918 81.6139 81.6978 81.2192C81.8055 80.826 82.0502 80.4222 82.4318 80.0076L83.7787 78.5445L84.3639 79.0833L83.0363 80.5255C82.7733 80.8111 82.6035 81.0795 82.5268 81.3306C82.4484 81.5835 82.4498 81.8197 82.5309 82.0392C82.6122 82.262 82.7599 82.472 82.9742 82.6693C83.1884 82.8665 83.4125 82.9988 83.6465 83.0662C83.8805 83.1336 84.122 83.1194 84.3711 83.0236C84.6219 82.9295 84.8803 82.7379 85.1465 82.4487L86.1951 81.3096L81.4192 76.913L82.0157 76.2651ZM82.1008 80.9964L78.4849 80.1005L79.1776 79.348L82.7742 80.2649L82.1008 80.9964Z" fill="currentColor"/>
<path d="M77.7716 87.6329C78.0263 87.8907 78.3342 88.005 78.6955 87.9758C79.0568 87.9466 79.4112 87.7968 79.7586 87.5263C80.0127 87.3285 80.2031 87.1144 80.3296 86.8839C80.4543 86.6548 80.514 86.4269 80.5085 86.2002C80.5011 85.9749 80.4262 85.7707 80.2837 85.5876C80.1645 85.4344 80.0255 85.3311 79.8669 85.2776C79.7078 85.2274 79.542 85.2109 79.3695 85.2282C79.1984 85.2474 79.0311 85.283 78.8678 85.3352C78.7058 85.3892 78.5607 85.4437 78.4324 85.4986L77.7274 85.7953C77.5474 85.8724 77.3389 85.9476 77.102 86.021C76.8633 86.0959 76.6133 86.1389 76.3521 86.1502C76.0905 86.1648 75.8326 86.1226 75.5784 86.0234C75.3242 85.9243 75.0924 85.7402 74.883 85.4711C74.6417 85.161 74.5048 84.8175 74.4725 84.4407C74.4383 84.0653 74.5189 83.6831 74.7141 83.2941C74.9075 82.9066 75.2246 82.5413 75.6655 82.1981C76.0765 81.8782 76.4841 81.6675 76.8881 81.566C77.2902 81.466 77.6696 81.4678 78.0261 81.5712C78.3808 81.6762 78.6915 81.8769 78.9582 82.1733L78.2408 82.7317C78.0535 82.5295 77.841 82.4068 77.6035 82.3637C77.3655 82.324 77.1215 82.3458 76.8716 82.4294C76.6212 82.5163 76.382 82.6484 76.1541 82.8258C75.8888 83.0323 75.6841 83.2607 75.5398 83.5109C75.3971 83.763 75.3244 84.0146 75.3218 84.2656C75.3206 84.5185 75.4015 84.7496 75.5643 84.9589C75.7126 85.1494 75.8866 85.263 76.0861 85.2997C76.2857 85.3364 76.5014 85.3245 76.7333 85.264C76.9652 85.2035 77.2039 85.1227 77.4493 85.0218L78.3125 84.6739C78.8612 84.4538 79.3594 84.3615 79.8071 84.3971C80.2548 84.4327 80.6291 84.6438 80.9301 85.0305C81.1802 85.3519 81.3115 85.6997 81.3238 86.0741C81.3358 86.4518 81.2458 86.8218 81.0539 87.1842C80.8615 87.5499 80.5823 87.8753 80.2161 88.1603C79.8462 88.4482 79.4657 88.6378 79.0748 88.7291C78.6853 88.8222 78.3178 88.8203 77.9722 88.7232C77.6248 88.6276 77.3338 88.4387 77.099 88.1564L77.7716 87.6329Z" fill="currentColor"/>
<path d="M64.7565 89.7043C65.0274 89.6112 65.2976 89.5924 65.5668 89.6476C65.8369 89.7051 66.0775 89.8227 66.2887 90.0005C66.4977 90.1791 66.6487 90.4038 66.7417 90.6748C66.8355 90.9479 66.8544 91.218 66.7984 91.4851C66.7409 91.7551 66.6229 91.9946 66.4443 92.2036C66.2665 92.4148 66.0421 92.5669 65.7712 92.6599C65.498 92.7537 65.2275 92.7715 64.9597 92.7132C64.6905 92.658 64.4513 92.5411 64.2424 92.3625C64.0319 92.187 63.8798 91.9626 63.786 91.6894C63.693 91.4185 63.6752 91.148 63.7327 90.878C63.788 90.6087 63.9045 90.3685 64.0823 90.1572C64.2586 89.949 64.4833 89.798 64.7565 89.7043Z" fill="currentColor"/>
</svg>
