<svg width="52" height="27" viewBox="0 0 52 27" fill="none" xmlns="http://www.w3.org/2000/svg">
<path opacity="0.5" d="M0 1.53654V0H7.18614V1.53654H4.50742V8.81614H2.67871V1.53654H0ZM11.0168 8.81614V0H12.8666V3.63737H16.6221V0H18.4677V8.81614H16.6221V5.17391H12.8666V8.81614H11.0168ZM22.6394 8.81614V0H28.5359V1.53654H24.4898V3.63737H28.2321V5.17391H24.4898V7.279H28.5527V8.81614H22.6394ZM0.33327 27V18.1839H3.8367C4.48036 18.1839 5.01753 18.2796 5.44764 18.4718C5.87775 18.6645 6.20078 18.9312 6.41734 19.2725C6.6339 19.6113 6.74221 20.0016 6.74221 20.4435C6.74221 20.7878 6.67363 21.0909 6.53707 21.3521C6.39992 21.6103 6.21224 21.8224 5.97282 21.9891C5.73641 22.1528 5.46572 22.2692 5.16133 22.3377V22.4237C5.49459 22.4383 5.80619 22.5328 6.09674 22.708C6.3903 22.8832 6.6279 23.1287 6.81017 23.4445C6.99244 23.7572 7.08388 24.13 7.08388 24.5634C7.08388 25.0313 6.96838 25.4489 6.73798 25.8162C6.50999 26.1805 6.17251 26.469 5.72496 26.6812C5.278 26.8939 4.72699 27 4.0719 27H0.33327ZM2.18364 25.4762H3.69174C4.20727 25.4762 4.58324 25.3768 4.81965 25.1792C5.05606 24.978 5.17396 24.7113 5.17396 24.3785C5.17396 24.1342 5.1156 23.919 4.9989 23.7324C4.8822 23.5463 4.71557 23.3996 4.49901 23.2935C4.28546 23.1874 4.03041 23.1341 3.73444 23.1341H2.18364V25.4762ZM2.18364 21.8728H3.55457C3.80843 21.8728 4.0334 21.8285 4.23011 21.7394C4.42922 21.6479 4.58563 21.5182 4.69992 21.3521C4.81662 21.1854 4.87498 20.986 4.87498 20.7538C4.87498 20.435 4.76247 20.178 4.53749 19.9829C4.31552 19.7877 3.99912 19.6901 3.58886 19.6901H2.18364V21.8728ZM10.9344 27V18.1839H14.3867C15.0472 18.1839 15.6115 18.3027 16.0783 18.5409C16.5481 18.776 16.906 19.1106 17.1509 19.544C17.3987 19.9744 17.5226 20.4811 17.5226 21.0636C17.5226 21.6491 17.3969 22.1528 17.1466 22.5747C16.8958 22.9935 16.5325 23.3147 16.0572 23.539C15.5844 23.7627 15.0117 23.8748 14.3392 23.8748H12.028V22.3764H14.0402C14.3933 22.3764 14.6869 22.328 14.9203 22.2304C15.1543 22.1328 15.3275 21.9861 15.4418 21.7909C15.5585 21.5958 15.6169 21.3533 15.6169 21.0636C15.6169 20.7708 15.5585 20.5241 15.4418 20.3229C15.3275 20.1223 15.1525 19.9701 14.9161 19.8671C14.6827 19.7604 14.3879 19.7077 14.0318 19.7077H12.7842V27H10.9344ZM15.6596 22.988L17.8342 27H15.792L13.6642 22.988H15.6596ZM22.9847 27H21.0026L24.023 18.1839H26.407L29.4231 27H27.441L25.249 20.198H25.181L22.9847 27ZM22.8608 23.5348H27.5433V24.9895H22.8608V23.5348ZM40.4418 18.1839V27H38.844L35.0374 21.4509H34.9731V27H33.1233V18.1839H34.7469L38.5234 23.7281H38.6004V18.1839H40.4418ZM47.7187 27H44.6171V18.1839H47.7446C48.6247 18.1839 49.382 18.3602 50.0173 18.713C50.6525 19.0634 51.141 19.567 51.4827 20.2241C51.8274 20.8811 52 21.6679 52 22.5831C52 23.5014 51.8274 24.2906 51.4827 24.9507C51.141 25.6108 50.6495 26.1175 50.0089 26.4702C49.3706 26.8236 48.6072 27 47.7187 27ZM46.4669 25.4029H47.6418C48.1886 25.4029 48.6488 25.3053 49.0217 25.1101C49.3977 24.9119 49.6798 24.6064 49.8681 24.193C50.0588 23.7772 50.1539 23.2402 50.1539 22.5831C50.1539 21.9315 50.0588 21.3994 49.8681 20.986C49.6798 20.5726 49.3995 20.2683 49.0259 20.0732C48.653 19.878 48.1928 19.7804 47.646 19.7804H46.4669V25.4029Z" fill="#FBF5ED"/>
</svg>
