<svg width="25" height="24" viewBox="0 0 25 24" fill="none" xmlns="http://www.w3.org/2000/svg">
<g clip-path="url(#clip0_2823_753)">
<path d="M12.5 24C19.1274 24 24.5 18.6274 24.5 12C24.5 5.37258 19.1274 0 12.5 0C5.87258 0 0.5 5.37258 0.5 12C0.5 18.6274 5.87258 24 12.5 24Z" fill="#FF0000"/>
<path d="M12.4993 6.27299C15.6493 6.27299 18.2266 8.83663 18.2266 12.0003C18.2266 15.1639 15.6629 17.7275 12.4993 17.7275C9.33565 17.7275 6.77202 15.1639 6.77202 12.0003C6.77202 8.83663 9.34929 6.27299 12.4993 6.27299ZM12.4993 5.72754C9.03565 5.72754 6.22656 8.53663 6.22656 12.0003C6.22656 15.4639 9.03565 18.273 12.4993 18.273C15.9629 18.273 18.772 15.4639 18.772 12.0003C18.772 8.53663 15.9629 5.72754 12.4993 5.72754Z" fill="white"/>
<path d="M10.3184 15.136L15.6365 11.8633L10.3184 8.86328V15.136Z" fill="white"/>
</g>
<defs>
<clipPath id="clip0_2823_753">
<rect width="24" height="24" fill="white" transform="translate(0.5)"/>
</clipPath>
</defs>
</svg>
